<svg xmlns="http://www.w3.org/2000/svg" xmlns:xlink="http://www.w3.org/1999/xlink" width="427" zoomAndPan="magnify" viewBox="0 0 320.25 66" height="88" preserveAspectRatio="xMidYMid meet" version="1.0"><defs><g/><clipPath id="eccb8917d0"><path d="M 6.585938 2 L 83 2 L 83 65.921875 L 6.585938 65.921875 Z M 6.585938 2 " clip-rule="nonzero"/></clipPath></defs><path fill="#0edc8d" d="M 108.933594 33.117188 L 108.933594 42.546875 L 126.65625 42.546875 L 126.65625 49.800781 L 102.0625 49.800781 L 102.0625 10.269531 L 126.65625 10.269531 L 126.65625 17.523438 L 108.933594 17.523438 L 108.933594 26.226562 L 124.484375 26.226562 L 124.484375 33.117188 Z M 108.933594 33.117188 " fill-opacity="1" fill-rule="nonzero"/><path fill="#0edc8d" d="M 150.886719 10.269531 L 158.121094 10.269531 L 158.121094 49.4375 L 150.886719 49.4375 L 150.886719 46.535156 C 148.714844 49.074219 145.460938 50.164062 142.207031 50.164062 C 140.398438 50.164062 138.953125 49.800781 137.503906 49.074219 C 136.058594 48.351562 134.613281 47.625 133.527344 46.535156 C 132.441406 45.449219 131.355469 43.636719 130.632812 42.183594 C 129.910156 40.371094 129.546875 38.558594 129.546875 36.382812 C 129.546875 34.566406 129.910156 32.753906 130.273438 31.304688 C 131.355469 28.402344 133.164062 26.226562 135.335938 24.414062 C 136.421875 23.6875 137.503906 22.960938 138.953125 22.601562 C 140.398438 22.238281 141.484375 21.875 142.929688 21.875 C 145.824219 21.875 148.714844 22.960938 150.886719 25.140625 Z M 150.886719 36.019531 C 150.886719 33.84375 150.164062 32.03125 148.714844 30.214844 C 147.269531 28.765625 145.460938 28.039062 143.652344 28.039062 C 141.84375 28.039062 140.035156 28.765625 138.589844 30.214844 C 137.144531 31.667969 136.421875 33.84375 136.421875 35.65625 C 136.421875 37.832031 137.144531 40.007812 138.589844 41.460938 C 140.035156 42.910156 141.84375 43.636719 143.652344 43.636719 C 145.460938 43.636719 147.269531 42.910156 148.714844 41.460938 C 150.164062 40.371094 150.886719 38.195312 150.886719 36.019531 Z M 150.886719 36.019531 " fill-opacity="1" fill-rule="nonzero"/><path fill="#0edc8d" d="M 183.4375 22.960938 L 190.308594 22.960938 L 190.308594 49.4375 L 183.4375 49.4375 L 183.4375 46.535156 C 181.628906 49.074219 179.097656 50.164062 176.203125 50.164062 C 172.949219 50.527344 169.691406 49.4375 167.160156 47.261719 C 164.628906 44.359375 163.542969 40.371094 163.90625 36.746094 L 163.90625 22.960938 L 170.777344 22.960938 L 170.777344 36.019531 C 170.777344 37.832031 171.140625 40.007812 172.585938 41.460938 C 173.671875 42.910156 175.117188 43.636719 176.925781 43.636719 C 178.734375 43.636719 180.542969 42.910156 181.628906 41.460938 C 183.074219 39.644531 183.796875 37.105469 183.4375 34.929688 Z M 183.4375 22.960938 " fill-opacity="1" fill-rule="nonzero"/><g clip-path="url(#eccb8917d0)"><path fill="#0edc8d" d="M 72.042969 65.757812 L 71.320312 65.757812 C 70.960938 65.757812 70.238281 65.757812 69.875 65.757812 C 69.511719 65.757812 69.152344 65.394531 68.789062 65.035156 C 68.429688 64.671875 68.429688 63.945312 68.789062 63.582031 L 69.511719 61.40625 C 69.875 59.957031 70.238281 58.503906 70.597656 57.78125 C 70.960938 57.417969 70.597656 57.054688 70.238281 56.691406 C 69.511719 55.964844 68.789062 54.878906 68.789062 53.789062 C 68.429688 52.703125 68.429688 51.613281 68.789062 50.527344 C 69.152344 49.4375 69.511719 48.710938 70.597656 47.988281 C 70.960938 47.625 70.960938 47.261719 70.960938 46.898438 L 70.960938 23.324219 C 70.960938 22.960938 70.960938 22.601562 70.960938 22.601562 C 70.960938 22.601562 70.597656 22.601562 70.238281 22.601562 L 49.984375 28.765625 L 46.003906 30.214844 C 44.921875 30.578125 43.472656 30.578125 42.390625 30.214844 C 34.792969 27.675781 29.007812 25.863281 25.027344 24.414062 C 18.519531 21.875 12.734375 19.699219 7.667969 17.886719 C 7.667969 17.886719 7.308594 17.523438 6.945312 17.160156 C 6.945312 17.160156 6.585938 16.433594 6.945312 16.070312 C 6.945312 15.710938 6.945312 15.347656 7.308594 14.984375 C 7.667969 14.621094 7.667969 14.621094 8.03125 14.621094 C 11.648438 13.171875 16.710938 11.355469 23.582031 9.179688 L 29.730469 7.003906 C 31.539062 6.28125 34.070312 5.554688 37.6875 4.464844 L 41.304688 3.378906 C 43.472656 2.652344 46.003906 2.652344 48.175781 3.378906 C 55.046875 5.554688 60.472656 7.367188 64.449219 8.816406 C 70.597656 10.996094 76.023438 13.171875 80.726562 15.347656 L 81.085938 15.347656 C 82.171875 15.347656 82.53125 16.433594 82.53125 17.160156 C 82.53125 17.523438 82.53125 17.886719 82.171875 18.246094 C 81.808594 18.609375 81.449219 18.609375 81.085938 18.609375 C 77.46875 19.699219 74.9375 20.785156 73.492188 21.148438 C 73.128906 21.148438 73.128906 21.511719 73.128906 21.511719 C 73.128906 21.875 73.128906 21.875 73.128906 22.238281 L 73.128906 46.535156 C 73.128906 46.898438 73.128906 47.261719 73.492188 47.261719 C 74.578125 47.988281 75.300781 48.710938 75.660156 49.800781 C 76.023438 50.890625 76.023438 52.339844 76.023438 53.425781 C 75.660156 54.515625 75.300781 55.605469 74.214844 56.691406 C 74.214844 56.691406 73.851562 57.054688 73.851562 57.054688 C 73.851562 57.417969 73.851562 57.417969 73.851562 57.78125 L 75.300781 63.21875 C 75.660156 65.035156 75.300781 65.757812 73.851562 65.757812 Z M 19.964844 31.304688 L 19.964844 29.855469 C 19.964844 28.402344 19.964844 27.316406 19.964844 26.589844 C 19.964844 26.226562 19.964844 26.226562 19.964844 25.863281 C 19.964844 25.863281 20.328125 25.863281 20.6875 25.863281 C 26.835938 28.402344 31.539062 29.855469 35.15625 30.941406 L 43.113281 33.480469 C 43.835938 33.84375 44.558594 33.84375 45.28125 33.480469 C 46.003906 33.480469 46.730469 33.117188 47.453125 32.753906 C 50.34375 32.03125 53.960938 30.578125 59.386719 28.765625 L 68.066406 25.863281 C 68.429688 25.863281 68.789062 25.863281 69.152344 25.863281 C 69.152344 26.226562 69.152344 26.589844 69.152344 26.953125 L 69.152344 35.292969 C 69.152344 37.105469 68.789062 38.921875 67.703125 40.007812 C 66.257812 41.820312 64.449219 43.273438 62.28125 43.996094 C 58.300781 45.8125 53.960938 46.535156 49.621094 46.898438 C 44.921875 47.261719 40.21875 47.261719 35.878906 46.175781 C 32.261719 45.8125 28.644531 44.359375 25.753906 42.546875 C 24.304688 41.820312 23.222656 40.734375 22.136719 39.28125 C 20.6875 38.921875 19.964844 37.46875 19.964844 35.65625 Z M 19.964844 31.304688 " fill-opacity="1" fill-rule="nonzero"/></g><g fill="#000000" fill-opacity="1"><g transform="translate(190.223517, 49.092805)"><g><path d="M 4.546875 0 L 4.546875 -36.171875 L 12.21875 -36.171875 L 12.21875 -6.328125 L 26.890625 -6.328125 L 26.890625 0 Z M 4.546875 0 "/></g></g></g><g fill="#000000" fill-opacity="1"><g transform="translate(217.024071, 49.092805)"><g><path d="M 23.546875 0 L 22.546875 -3.53125 L 22.140625 -3.53125 C 21.335938 -2.25 20.191406 -1.253906 18.703125 -0.546875 C 17.222656 0.148438 15.535156 0.5 13.640625 0.5 C 10.390625 0.5 7.9375 -0.367188 6.28125 -2.109375 C 4.632812 -3.847656 3.8125 -6.351562 3.8125 -9.625 L 3.8125 -27.65625 L 11.359375 -27.65625 L 11.359375 -11.5 C 11.359375 -9.507812 11.710938 -8.015625 12.421875 -7.015625 C 13.128906 -6.015625 14.257812 -5.515625 15.8125 -5.515625 C 17.925781 -5.515625 19.453125 -6.21875 20.390625 -7.625 C 21.328125 -9.039062 21.796875 -11.378906 21.796875 -14.640625 L 21.796875 -27.65625 L 29.34375 -27.65625 L 29.34375 0 Z M 23.546875 0 "/></g></g></g><g fill="#000000" fill-opacity="1"><g transform="translate(248.500581, 49.092805)"><g><path d="M 28.71875 0 L 21.171875 0 L 21.171875 -16.15625 C 21.171875 -18.15625 20.835938 -19.648438 20.171875 -20.640625 C 19.503906 -21.640625 18.453125 -22.140625 17.015625 -22.140625 C 15.085938 -22.140625 13.6875 -21.429688 12.8125 -20.015625 C 11.9375 -18.597656 11.5 -16.265625 11.5 -13.015625 L 11.5 0 L 3.953125 0 L 3.953125 -27.65625 L 9.71875 -27.65625 L 10.734375 -24.125 L 11.15625 -24.125 C 11.894531 -25.394531 12.96875 -26.390625 14.375 -27.109375 C 15.78125 -27.828125 17.390625 -28.1875 19.203125 -28.1875 C 23.335938 -28.1875 26.140625 -26.832031 27.609375 -24.125 L 28.28125 -24.125 C 29.019531 -25.40625 30.109375 -26.398438 31.546875 -27.109375 C 32.992188 -27.828125 34.625 -28.1875 36.4375 -28.1875 C 39.570312 -28.1875 41.941406 -27.378906 43.546875 -25.765625 C 45.160156 -24.160156 45.96875 -21.582031 45.96875 -18.03125 L 45.96875 0 L 38.40625 0 L 38.40625 -16.15625 C 38.40625 -18.15625 38.066406 -19.648438 37.390625 -20.640625 C 36.722656 -21.640625 35.675781 -22.140625 34.25 -22.140625 C 32.394531 -22.140625 31.007812 -21.476562 30.09375 -20.15625 C 29.175781 -18.84375 28.71875 -16.75 28.71875 -13.875 Z M 28.71875 0 "/></g></g></g><g fill="#000000" fill-opacity="1"><g transform="translate(296.429554, 49.092805)"><g><path d="M 3.640625 -34.8125 C 3.640625 -37.269531 5.007812 -38.5 7.75 -38.5 C 10.476562 -38.5 11.84375 -37.269531 11.84375 -34.8125 C 11.84375 -33.644531 11.5 -32.734375 10.8125 -32.078125 C 10.132812 -31.421875 9.113281 -31.09375 7.75 -31.09375 C 5.007812 -31.09375 3.640625 -32.332031 3.640625 -34.8125 Z M 11.5 0 L 3.953125 0 L 3.953125 -27.65625 L 11.5 -27.65625 Z M 11.5 0 "/></g></g></g></svg>